<?xml version="1.0" encoding="UTF-8" standalone="no"?>
<!DOCTYPE svg PUBLIC "-//W3C//DTD SVG 1.1//EN"
 "http://www.w3.org/Graphics/SVG/1.1/DTD/svg11.dtd">
<!-- Generated by graphviz version 2.44.1 (20200629.0846)
 -->
<!-- Title: dependencies Pages: 1 -->
<svg width="1151pt" height="211pt"
 viewBox="0.00 0.00 1151.00 211.00" xmlns="http://www.w3.org/2000/svg" xmlns:xlink="http://www.w3.org/1999/xlink">
<g id="graph0" class="graph" transform="scale(1 1) rotate(0) translate(4 207)">
<title>dependencies</title>
<polygon fill="white" stroke="transparent" points="-4,4 -4,-207 1147,-207 1147,4 -4,4"/>
<text text-anchor="start" x="550.51" y="-42.4" font-family="sans-serif" font-weight="bold" font-size="14.00">Legend</text>
<polygon fill="#ffffb3" stroke="transparent" points="337.5,-10 337.5,-30 357.5,-30 357.5,-10 337.5,-10"/>
<text text-anchor="start" x="361.13" y="-15.4" font-family="sans-serif" font-size="14.00"> &#160;Declarations</text>
<polygon fill="#8dd3c7" stroke="transparent" points="450.5,-10 450.5,-30 470.5,-30 470.5,-10 450.5,-10"/>
<text text-anchor="start" x="474.23" y="-15.4" font-family="sans-serif" font-size="14.00"> &#160;Module</text>
<polygon fill="#80b1d3" stroke="transparent" points="536.5,-10 536.5,-30 556.5,-30 556.5,-10 536.5,-10"/>
<text text-anchor="start" x="560.28" y="-15.4" font-family="sans-serif" font-size="14.00"> &#160;Bootstrap</text>
<polygon fill="#fdb462" stroke="transparent" points="633.5,-10 633.5,-30 653.5,-30 653.5,-10 633.5,-10"/>
<text text-anchor="start" x="657.17" y="-15.4" font-family="sans-serif" font-size="14.00"> &#160;Providers</text>
<polygon fill="#fb8072" stroke="transparent" points="729.5,-10 729.5,-30 749.5,-30 749.5,-10 729.5,-10"/>
<text text-anchor="start" x="753.23" y="-15.4" font-family="sans-serif" font-size="14.00"> &#160;Exports</text>
<g id="clust1" class="cluster">
<title>cluster_PagesModule</title>
<polygon fill="none" stroke="black" stroke-dasharray="1,5" points="8,-70 8,-195 1135,-195 1135,-70 8,-70"/>
</g>
<g id="clust2" class="cluster">
<title>cluster_PagesModule_declarations</title>
<polygon fill="none" stroke="black" points="16,-78 16,-130 1127,-130 1127,-78 16,-78"/>
</g>
<!-- AboutComponent -->
<g id="node1" class="node">
<title>AboutComponent</title>
<polygon fill="#ffffb3" stroke="black" points="1119.33,-122 1002.67,-122 1002.67,-86 1119.33,-86 1119.33,-122"/>
<text text-anchor="middle" x="1061" y="-99.8" font-family="Times,serif" font-size="14.00">AboutComponent</text>
</g>
<!-- PagesModule -->
<g id="node9" class="node">
<title>PagesModule</title>
<polygon fill="#8dd3c7" stroke="black" points="625.21,-187 622.21,-191 601.21,-191 598.21,-187 532.79,-187 532.79,-151 625.21,-151 625.21,-187"/>
<text text-anchor="middle" x="579" y="-164.8" font-family="Times,serif" font-size="14.00">PagesModule</text>
</g>
<!-- AboutComponent&#45;&gt;PagesModule -->
<g id="edge1" class="edge">
<title>AboutComponent&#45;&gt;PagesModule</title>
<path fill="none" stroke="black" d="M1061,-122.29C1061,-144.21 1061,-178 1061,-178 1061,-178 635.22,-178 635.22,-178"/>
<polygon fill="black" stroke="black" points="635.22,-174.5 625.22,-178 635.22,-181.5 635.22,-174.5"/>
</g>
<!-- ContactComponent -->
<g id="node2" class="node">
<title>ContactComponent</title>
<polygon fill="#ffffb3" stroke="black" points="984.38,-122 859.62,-122 859.62,-86 984.38,-86 984.38,-122"/>
<text text-anchor="middle" x="922" y="-99.8" font-family="Times,serif" font-size="14.00">ContactComponent</text>
</g>
<!-- ContactComponent&#45;&gt;PagesModule -->
<g id="edge2" class="edge">
<title>ContactComponent&#45;&gt;PagesModule</title>
<path fill="none" stroke="black" d="M922,-122.11C922,-141.34 922,-169 922,-169 922,-169 635.26,-169 635.26,-169"/>
<polygon fill="black" stroke="black" points="635.26,-165.5 625.26,-169 635.26,-172.5 635.26,-165.5"/>
</g>
<!-- FooterComponent -->
<g id="node3" class="node">
<title>FooterComponent</title>
<polygon fill="#ffffb3" stroke="black" points="841.88,-122 724.12,-122 724.12,-86 841.88,-86 841.88,-122"/>
<text text-anchor="middle" x="783" y="-99.8" font-family="Times,serif" font-size="14.00">FooterComponent</text>
</g>
<!-- FooterComponent&#45;&gt;PagesModule -->
<g id="edge3" class="edge">
<title>FooterComponent&#45;&gt;PagesModule</title>
<path fill="none" stroke="black" d="M783,-122.03C783,-138.4 783,-160 783,-160 783,-160 635.29,-160 635.29,-160"/>
<polygon fill="black" stroke="black" points="635.29,-156.5 625.29,-160 635.29,-163.5 635.29,-156.5"/>
</g>
<!-- HeaderComponent -->
<g id="node4" class="node">
<title>HeaderComponent</title>
<polygon fill="#ffffb3" stroke="black" points="705.74,-122 584.26,-122 584.26,-86 705.74,-86 705.74,-122"/>
<text text-anchor="middle" x="645" y="-99.8" font-family="Times,serif" font-size="14.00">HeaderComponent</text>
</g>
<!-- HeaderComponent&#45;&gt;PagesModule -->
<g id="edge4" class="edge">
<title>HeaderComponent&#45;&gt;PagesModule</title>
<path fill="none" stroke="black" d="M604.62,-122.11C604.62,-122.11 604.62,-140.99 604.62,-140.99"/>
<polygon fill="black" stroke="black" points="601.12,-140.99 604.62,-150.99 608.12,-140.99 601.12,-140.99"/>
</g>
<!-- IdeaComponent -->
<g id="node5" class="node">
<title>IdeaComponent</title>
<polygon fill="#ffffb3" stroke="black" points="565.92,-122 460.08,-122 460.08,-86 565.92,-86 565.92,-122"/>
<text text-anchor="middle" x="513" y="-99.8" font-family="Times,serif" font-size="14.00">IdeaComponent</text>
</g>
<!-- IdeaComponent&#45;&gt;PagesModule -->
<g id="edge5" class="edge">
<title>IdeaComponent&#45;&gt;PagesModule</title>
<path fill="none" stroke="black" d="M549.3,-122.11C549.3,-122.11 549.3,-140.99 549.3,-140.99"/>
<polygon fill="black" stroke="black" points="545.8,-140.99 549.3,-150.99 552.8,-140.99 545.8,-140.99"/>
</g>
<!-- PagesComponent -->
<g id="node6" class="node">
<title>PagesComponent</title>
<polygon fill="#ffffb3" stroke="black" points="441.99,-122 328.01,-122 328.01,-86 441.99,-86 441.99,-122"/>
<text text-anchor="middle" x="385" y="-99.8" font-family="Times,serif" font-size="14.00">PagesComponent</text>
</g>
<!-- PagesComponent&#45;&gt;PagesModule -->
<g id="edge6" class="edge">
<title>PagesComponent&#45;&gt;PagesModule</title>
<path fill="none" stroke="black" d="M385,-122.03C385,-138.4 385,-160 385,-160 385,-160 522.53,-160 522.53,-160"/>
<polygon fill="black" stroke="black" points="522.53,-163.5 532.53,-160 522.53,-156.5 522.53,-163.5"/>
</g>
<!-- PortafolioComponent -->
<g id="node7" class="node">
<title>PortafolioComponent</title>
<polygon fill="#ffffb3" stroke="black" points="309.82,-122 172.18,-122 172.18,-86 309.82,-86 309.82,-122"/>
<text text-anchor="middle" x="241" y="-99.8" font-family="Times,serif" font-size="14.00">PortafolioComponent</text>
</g>
<!-- PortafolioComponent&#45;&gt;PagesModule -->
<g id="edge7" class="edge">
<title>PortafolioComponent&#45;&gt;PagesModule</title>
<path fill="none" stroke="black" d="M241,-122.11C241,-141.34 241,-169 241,-169 241,-169 522.71,-169 522.71,-169"/>
<polygon fill="black" stroke="black" points="522.71,-172.5 532.71,-169 522.71,-165.5 522.71,-172.5"/>
</g>
<!-- ProductsComponent -->
<g id="node8" class="node">
<title>ProductsComponent</title>
<polygon fill="#ffffb3" stroke="black" points="154.33,-122 23.67,-122 23.67,-86 154.33,-86 154.33,-122"/>
<text text-anchor="middle" x="89" y="-99.8" font-family="Times,serif" font-size="14.00">ProductsComponent</text>
</g>
<!-- ProductsComponent&#45;&gt;PagesModule -->
<g id="edge8" class="edge">
<title>ProductsComponent&#45;&gt;PagesModule</title>
<path fill="none" stroke="black" d="M89,-122.29C89,-144.21 89,-178 89,-178 89,-178 522.46,-178 522.46,-178"/>
<polygon fill="black" stroke="black" points="522.46,-181.5 532.46,-178 522.46,-174.5 522.46,-181.5"/>
</g>
</g>
</svg>
