<?xml version="1.0" encoding="UTF-8" standalone="no"?>
<!DOCTYPE svg PUBLIC "-//W3C//DTD SVG 1.1//EN"
 "http://www.w3.org/Graphics/SVG/1.1/DTD/svg11.dtd">
<!-- Generated by graphviz version 2.44.1 (20200629.0846)
 -->
<!-- Title: dependencies Pages: 1 -->
<svg width="1329pt" height="360pt"
 viewBox="0.00 0.00 1329.00 360.00" xmlns="http://www.w3.org/2000/svg" xmlns:xlink="http://www.w3.org/1999/xlink">
<g id="graph0" class="graph" transform="scale(1 1) rotate(0) translate(4 356)">
<title>dependencies</title>
<polygon fill="white" stroke="transparent" points="-4,4 -4,-356 1325,-356 1325,4 -4,4"/>
<text text-anchor="start" x="639.51" y="-42.4" font-family="sans-serif" font-weight="bold" font-size="14.00">Legend</text>
<polygon fill="#ffffb3" stroke="transparent" points="426.5,-10 426.5,-30 446.5,-30 446.5,-10 426.5,-10"/>
<text text-anchor="start" x="450.13" y="-15.4" font-family="sans-serif" font-size="14.00"> &#160;Declarations</text>
<polygon fill="#8dd3c7" stroke="transparent" points="539.5,-10 539.5,-30 559.5,-30 559.5,-10 539.5,-10"/>
<text text-anchor="start" x="563.23" y="-15.4" font-family="sans-serif" font-size="14.00"> &#160;Module</text>
<polygon fill="#80b1d3" stroke="transparent" points="625.5,-10 625.5,-30 645.5,-30 645.5,-10 625.5,-10"/>
<text text-anchor="start" x="649.28" y="-15.4" font-family="sans-serif" font-size="14.00"> &#160;Bootstrap</text>
<polygon fill="#fdb462" stroke="transparent" points="722.5,-10 722.5,-30 742.5,-30 742.5,-10 722.5,-10"/>
<text text-anchor="start" x="746.17" y="-15.4" font-family="sans-serif" font-size="14.00"> &#160;Providers</text>
<polygon fill="#fb8072" stroke="transparent" points="818.5,-10 818.5,-30 838.5,-30 838.5,-10 818.5,-10"/>
<text text-anchor="start" x="842.23" y="-15.4" font-family="sans-serif" font-size="14.00"> &#160;Exports</text>
<g id="clust1" class="cluster">
<title>cluster_AppModule</title>
<polygon fill="none" stroke="black" stroke-dasharray="1,5" points="483,-146 483,-344 1062,-344 1062,-146 483,-146"/>
</g>
<g id="clust2" class="cluster">
<title>cluster_AppModule_declarations</title>
<polygon fill="none" stroke="black" points="753,-154 753,-206 1054,-206 1054,-154 753,-154"/>
</g>
<g id="clust5" class="cluster">
<title>cluster_AppModule_imports</title>
<polygon fill="none" stroke="black" points="491,-154 491,-206 745,-206 745,-154 491,-154"/>
</g>
<g id="clust7" class="cluster">
<title>cluster_AppModule_bootstrap</title>
<polygon fill="none" stroke="black" points="704,-284 704,-336 828,-336 828,-284 704,-284"/>
</g>
<g id="clust9" class="cluster">
<title>cluster_AppRoutingModule</title>
<polygon fill="none" stroke="black" stroke-dasharray="1,5" points="8,-70 8,-138 178,-138 178,-70 8,-70"/>
</g>
<g id="clust11" class="cluster">
<title>cluster_AppRoutingModule_imports</title>
<polygon fill="none" stroke="black" points="16,-78 16,-130 170,-130 170,-78 16,-78"/>
</g>
<g id="clust15" class="cluster">
<title>cluster_PagesModule</title>
<polygon fill="none" stroke="black" stroke-dasharray="1,5" points="186,-70 186,-138 1313,-138 1313,-70 186,-70"/>
</g>
<g id="clust16" class="cluster">
<title>cluster_PagesModule_declarations</title>
<polygon fill="none" stroke="black" points="194,-78 194,-130 1305,-130 1305,-78 194,-78"/>
</g>
<!-- AppComponent -->
<g id="node1" class="node">
<title>AppComponent</title>
<polygon fill="#ffffb3" stroke="black" points="1045.94,-198 940.06,-198 940.06,-162 1045.94,-162 1045.94,-198"/>
<text text-anchor="middle" x="993" y="-175.8" font-family="Times,serif" font-size="14.00">AppComponent</text>
</g>
<!-- AppModule -->
<g id="node3" class="node">
<title>AppModule</title>
<polygon fill="#8dd3c7" stroke="black" points="807.66,-263 804.66,-267 783.66,-267 780.66,-263 724.34,-263 724.34,-227 807.66,-227 807.66,-263"/>
<text text-anchor="middle" x="766" y="-240.8" font-family="Times,serif" font-size="14.00">AppModule</text>
</g>
<!-- AppComponent&#45;&gt;AppModule -->
<g id="edge1" class="edge">
<title>AppComponent&#45;&gt;AppModule</title>
<path fill="none" stroke="black" d="M993,-198.11C993,-217.34 993,-245 993,-245 993,-245 817.9,-245 817.9,-245"/>
<polygon fill="black" stroke="black" points="817.9,-241.5 807.9,-245 817.9,-248.5 817.9,-241.5"/>
</g>
<!-- NoPageFoundComponent -->
<g id="node2" class="node">
<title>NoPageFoundComponent</title>
<polygon fill="#ffffb3" stroke="black" points="922.93,-198 761.07,-198 761.07,-162 922.93,-162 922.93,-198"/>
<text text-anchor="middle" x="842" y="-175.8" font-family="Times,serif" font-size="14.00">NoPageFoundComponent</text>
</g>
<!-- NoPageFoundComponent&#45;&gt;AppModule -->
<g id="edge2" class="edge">
<title>NoPageFoundComponent&#45;&gt;AppModule</title>
<path fill="none" stroke="black" d="M784.56,-198.11C784.56,-198.11 784.56,-216.99 784.56,-216.99"/>
<polygon fill="black" stroke="black" points="781.06,-216.99 784.56,-226.99 788.06,-216.99 781.06,-216.99"/>
</g>
<!-- AppComponent  -->
<g id="node6" class="node">
<title>AppComponent </title>
<polygon fill="#80b1d3" stroke="black" points="820.44,-328 711.56,-328 711.56,-292 820.44,-292 820.44,-328"/>
<text text-anchor="middle" x="766" y="-305.8" font-family="Times,serif" font-size="14.00">AppComponent </text>
</g>
<!-- AppModule&#45;&gt;AppComponent  -->
<g id="edge5" class="edge">
<title>AppModule&#45;&gt;AppComponent </title>
<path fill="none" stroke="black" stroke-dasharray="1,5" d="M766,-263.11C766,-263.11 766,-281.99 766,-281.99"/>
<polygon fill="black" stroke="black" points="762.5,-281.99 766,-291.99 769.5,-281.99 762.5,-281.99"/>
</g>
<!-- AppRoutingModule -->
<g id="node4" class="node">
<title>AppRoutingModule</title>
<polygon fill="#8dd3c7" stroke="black" points="627.27,-198 624.27,-202 603.27,-202 600.27,-198 498.73,-198 498.73,-162 627.27,-162 627.27,-198"/>
<text text-anchor="middle" x="563" y="-175.8" font-family="Times,serif" font-size="14.00">AppRoutingModule</text>
</g>
<!-- AppRoutingModule&#45;&gt;AppModule -->
<g id="edge3" class="edge">
<title>AppRoutingModule&#45;&gt;AppModule</title>
<path fill="none" stroke="black" d="M563,-198.11C563,-217.34 563,-245 563,-245 563,-245 713.94,-245 713.94,-245"/>
<polygon fill="black" stroke="black" points="713.94,-248.5 723.94,-245 713.94,-241.5 713.94,-248.5"/>
</g>
<!-- PagesModule -->
<g id="node5" class="node">
<title>PagesModule</title>
<polygon fill="#8dd3c7" stroke="black" points="737.21,-198 734.21,-202 713.21,-202 710.21,-198 644.79,-198 644.79,-162 737.21,-162 737.21,-198"/>
<text text-anchor="middle" x="691" y="-175.8" font-family="Times,serif" font-size="14.00">PagesModule</text>
</g>
<!-- PagesModule&#45;&gt;AppModule -->
<g id="edge4" class="edge">
<title>PagesModule&#45;&gt;AppModule</title>
<path fill="none" stroke="black" d="M730.64,-198.11C730.64,-198.11 730.64,-216.99 730.64,-216.99"/>
<polygon fill="black" stroke="black" points="727.14,-216.99 730.64,-226.99 734.14,-216.99 727.14,-216.99"/>
</g>
<!-- PagesRoutingModule -->
<g id="node7" class="node">
<title>PagesRoutingModule</title>
<polygon fill="#8dd3c7" stroke="black" points="161.82,-122 158.82,-126 137.82,-126 134.82,-122 24.18,-122 24.18,-86 161.82,-86 161.82,-122"/>
<text text-anchor="middle" x="93" y="-99.8" font-family="Times,serif" font-size="14.00">PagesRoutingModule</text>
</g>
<!-- PagesRoutingModule&#45;&gt;AppRoutingModule -->
<g id="edge6" class="edge">
<title>PagesRoutingModule&#45;&gt;AppRoutingModule</title>
<path fill="none" stroke="black" d="M93,-122.01C93,-144.49 93,-180 93,-180 93,-180 488.63,-180 488.63,-180"/>
<polygon fill="black" stroke="black" points="488.63,-183.5 498.63,-180 488.63,-176.5 488.63,-183.5"/>
</g>
<!-- AboutComponent -->
<g id="node8" class="node">
<title>AboutComponent</title>
<polygon fill="#ffffb3" stroke="black" points="1297.33,-122 1180.67,-122 1180.67,-86 1297.33,-86 1297.33,-122"/>
<text text-anchor="middle" x="1239" y="-99.8" font-family="Times,serif" font-size="14.00">AboutComponent</text>
</g>
<!-- AboutComponent&#45;&gt;PagesModule -->
<g id="edge7" class="edge">
<title>AboutComponent&#45;&gt;PagesModule</title>
<path fill="none" stroke="black" d="M1239,-122.19C1239,-137.18 1239,-156 1239,-156 1239,-156 723.93,-156 723.93,-156 723.93,-156 723.93,-156.58 723.93,-156.58"/>
<polygon fill="black" stroke="black" points="720.43,-151.81 723.93,-161.81 727.43,-151.81 720.43,-151.81"/>
</g>
<!-- ContactComponent -->
<g id="node9" class="node">
<title>ContactComponent</title>
<polygon fill="#ffffb3" stroke="black" points="1162.38,-122 1037.62,-122 1037.62,-86 1162.38,-86 1162.38,-122"/>
<text text-anchor="middle" x="1100" y="-99.8" font-family="Times,serif" font-size="14.00">ContactComponent</text>
</g>
<!-- ContactComponent&#45;&gt;PagesModule -->
<g id="edge8" class="edge">
<title>ContactComponent&#45;&gt;PagesModule</title>
<path fill="none" stroke="black" d="M1041.64,-122.04C1041.64,-134.56 1041.64,-149 1041.64,-149 1041.64,-149 710.76,-149 710.76,-149 710.76,-149 710.76,-151.97 710.76,-151.97"/>
<polygon fill="black" stroke="black" points="707.26,-151.97 710.76,-161.97 714.26,-151.97 707.26,-151.97"/>
</g>
<!-- FooterComponent -->
<g id="node10" class="node">
<title>FooterComponent</title>
<polygon fill="#ffffb3" stroke="black" points="1019.88,-122 902.12,-122 902.12,-86 1019.88,-86 1019.88,-122"/>
<text text-anchor="middle" x="961" y="-99.8" font-family="Times,serif" font-size="14.00">FooterComponent</text>
</g>
<!-- FooterComponent&#45;&gt;PagesModule -->
<g id="edge9" class="edge">
<title>FooterComponent&#45;&gt;PagesModule</title>
<path fill="none" stroke="black" d="M912.39,-122.11C912.39,-131.9 912.39,-142 912.39,-142 912.39,-142 697.59,-142 697.59,-142 697.59,-142 697.59,-151.89 697.59,-151.89"/>
<polygon fill="black" stroke="black" points="694.09,-151.89 697.59,-161.89 701.09,-151.89 694.09,-151.89"/>
</g>
<!-- HeaderComponent -->
<g id="node11" class="node">
<title>HeaderComponent</title>
<polygon fill="#ffffb3" stroke="black" points="883.74,-122 762.26,-122 762.26,-86 883.74,-86 883.74,-122"/>
<text text-anchor="middle" x="823" y="-99.8" font-family="Times,serif" font-size="14.00">HeaderComponent</text>
</g>
<!-- HeaderComponent&#45;&gt;PagesModule -->
<g id="edge10" class="edge">
<title>HeaderComponent&#45;&gt;PagesModule</title>
<path fill="none" stroke="black" d="M762.01,-104C756.24,-104 752.5,-104 752.5,-104 752.5,-104 752.5,-180 752.5,-180 752.5,-180 747.3,-180 747.3,-180"/>
<polygon fill="black" stroke="black" points="747.3,-176.5 737.3,-180 747.3,-183.5 747.3,-176.5"/>
</g>
<!-- IdeaComponent -->
<g id="node12" class="node">
<title>IdeaComponent</title>
<polygon fill="#ffffb3" stroke="black" points="743.92,-122 638.08,-122 638.08,-86 743.92,-86 743.92,-122"/>
<text text-anchor="middle" x="691" y="-99.8" font-family="Times,serif" font-size="14.00">IdeaComponent</text>
</g>
<!-- IdeaComponent&#45;&gt;PagesModule -->
<g id="edge11" class="edge">
<title>IdeaComponent&#45;&gt;PagesModule</title>
<path fill="none" stroke="black" d="M684.41,-122.01C684.41,-122.01 684.41,-151.85 684.41,-151.85"/>
<polygon fill="black" stroke="black" points="680.91,-151.85 684.41,-161.85 687.91,-151.85 680.91,-151.85"/>
</g>
<!-- PagesComponent -->
<g id="node13" class="node">
<title>PagesComponent</title>
<polygon fill="#ffffb3" stroke="black" points="619.99,-122 506.01,-122 506.01,-86 619.99,-86 619.99,-122"/>
<text text-anchor="middle" x="563" y="-99.8" font-family="Times,serif" font-size="14.00">PagesComponent</text>
</g>
<!-- PagesComponent&#45;&gt;PagesModule -->
<g id="edge12" class="edge">
<title>PagesComponent&#45;&gt;PagesModule</title>
<path fill="none" stroke="black" d="M620.03,-104C627.62,-104 632.84,-104 632.84,-104 632.84,-104 632.84,-180 632.84,-180 632.84,-180 634.89,-180 634.89,-180"/>
<polygon fill="black" stroke="black" points="634.89,-183.5 644.89,-180 634.89,-176.5 634.89,-183.5"/>
</g>
<!-- PortafolioComponent -->
<g id="node14" class="node">
<title>PortafolioComponent</title>
<polygon fill="#ffffb3" stroke="black" points="487.82,-122 350.18,-122 350.18,-86 487.82,-86 487.82,-122"/>
<text text-anchor="middle" x="419" y="-99.8" font-family="Times,serif" font-size="14.00">PortafolioComponent</text>
</g>
<!-- PortafolioComponent&#45;&gt;PagesModule -->
<g id="edge13" class="edge">
<title>PortafolioComponent&#45;&gt;PagesModule</title>
<path fill="none" stroke="black" d="M419,-122.17C419,-126.05 419,-129 419,-129 419,-129 671.24,-129 671.24,-129 671.24,-129 671.24,-151.88 671.24,-151.88"/>
<polygon fill="black" stroke="black" points="667.74,-151.88 671.24,-161.88 674.74,-151.88 667.74,-151.88"/>
</g>
<!-- ProductsComponent -->
<g id="node15" class="node">
<title>ProductsComponent</title>
<polygon fill="#ffffb3" stroke="black" points="332.33,-122 201.67,-122 201.67,-86 332.33,-86 332.33,-122"/>
<text text-anchor="middle" x="267" y="-99.8" font-family="Times,serif" font-size="14.00">ProductsComponent</text>
</g>
<!-- ProductsComponent&#45;&gt;PagesModule -->
<g id="edge14" class="edge">
<title>ProductsComponent&#45;&gt;PagesModule</title>
<path fill="none" stroke="black" d="M267,-122.24C267,-129.43 267,-136 267,-136 267,-136 658.07,-136 658.07,-136 658.07,-136 658.07,-151.85 658.07,-151.85"/>
<polygon fill="black" stroke="black" points="654.57,-151.85 658.07,-161.85 661.57,-151.85 654.57,-151.85"/>
</g>
</g>
</svg>
